<svg width="20" height="24" viewBox="0 0 20 24" fill="none" xmlns="http://www.w3.org/2000/svg">
<path d="M8.60897 0.000976562H1.10934C0.695124 0.000976562 0.359375 0.336726 0.359375 0.75094V23.2498C0.359375 23.6641 0.695124 23.9998 1.10934 23.9998H8.60897C9.02319 23.9998 9.35894 23.6641 9.35894 23.2498V0.75094C9.35894 0.336726 9.02314 0.000976562 8.60897 0.000976562ZM7.85901 22.4999H1.8593V20.25H5.60912V18.7501H1.8593V16.5002H4.10919V15.0002H1.8593V12.7504H5.60912V11.2504H1.8593V9.00054H4.10919V7.50061H1.8593V5.25072H5.60912V3.75079H1.8593V1.5009H7.85901V22.4999Z" fill="#EE4D2D"/>
<path d="M18.5838 18.9747L16.1089 21.4421V2.55798L18.5763 5.02536L19.6337 3.96792L15.8839 0.218099C15.5914 -0.0726996 15.119 -0.0726996 14.8265 0.218099L11.0767 3.96792L12.1341 5.02536L14.609 2.55798V21.4421L12.1416 18.9747L11.0842 20.0321L14.834 23.7819C15.1265 24.0727 15.5989 24.0727 15.8914 23.7819L19.6412 20.0321L18.5838 18.9747Z" fill="#EE4D2D"/>
</svg>
